<?xml version="1.0"?>
<svg id="Capa_1" data-name="Capa 1" xmlns="http://www.w3.org/2000/svg" viewBox="0 0 566.92913 566.92913">
  <defs>
    
  </defs>
  <path fill="#312e81" d="m437.63384,239.36944c-6.59012,15.99288-20.81517,41.7103-49.34523,61.23933-27.56569,18.80552-56.33708,23.22607-77.07132,23.30652,20.73424-7.47453,48.21997-22.26171,69.19555-51.51528,7.31315-10.12627,13.18024-21.13646,17.51987-32.70928,13.01935-2.00917,26.60133-2.08961,39.70113-.32129Z"></path>
  <path fill="#312e81" d="m361.44644,207.62452c11.73321-6.50968,24.67212-11.41192,37.77192-14.22505-.48218,13.50153-2.97353,26.60133-7.31315,39.13851-12.37628,2.2505-24.27088,6.18839-35.44147,11.57281-.16089.08045-.24134.16089-.40223.24134l5.38492-36.72761Z"></path>
  <path fill="#0760ab" d="m359.91945,251.34399c9.08147-4.33962,18.72507-7.71537,28.69094-9.88494-3.85793,9.24187-8.84062,18.08249-14.70723,26.27955-20.09166,27.96792-46.61254,42.03208-65.98118,48.86305,15.5107-12.69806,33.59319-32.54838,44.36253-61.23933,2.49135-1.3661,4.98269-2.73268,7.63493-4.01833Z"></path>
  <path fill="#0760ab" d="m330.42455,231.25233c6.9119-7.0723,14.46638-13.34064,22.74389-18.64512-.48218,9.88494-2.08961,19.68992-4.8218,29.17312-.72352,2.73268-1.60743,5.46487-2.49135,8.03666-9.08147,5.30398-17.51987,11.7337-25.23524,19.1273,2.49135-10.20672,3.777-20.57384,3.93789-31.18229v-.08045c1.84828-2.16957,3.77749-4.25918,5.86661-6.42923Z"></path>
  <path fill="#312e81" d="m353.32933,203.04357c-10.52801,6.10794-20.09166,13.74287-28.6105,22.583l-.48218.48218c0-.32129-.08045-.56263-.08045-.88392-.88392-12.29633-3.45571-24.43128-7.63493-36.08454,8.67973-10.04583,18.80601-18.72556,30.21793-25.87831,4.09878,12.9394,6.34879,26.28004,6.59012,39.78158Z"></path>
  <path fill="#168ccd" d="m340.39042,262.99725c-9.88543,20.73473-23.70825,35.76325-36.08503,46.13036,3.69704-6.34879,7.47404-13.74287,10.6889-22.42211v-.08045c7.55448-9.08147,16.07332-16.95724,25.39613-23.62781Z"></path>
  <path fill="#0760ab" d="m316.19999,225.78746c.24084,3.05397.32129,6.10794.32129,9.08147-6.67057,8.11711-12.45673,17.03769-17.11813,26.60133-1.20521-10.92974-3.69704-21.61864-7.31315-31.9058.80347-2.4109,1.76783-4.74136,2.89308-7.15226,4.17922-9.16191,9.32231-17.84165,15.59114-25.87831,2.97353,9.56365,4.8218,19.36863,5.62576,29.25357Z"></path>
  <path fill="#168ccd" d="m315.87821,249.09349c-1.12476,11.33197-3.777,22.4226-7.79533,33.2719v.08045c-3.37526,4.01833-6.26883,8.03666-8.76018,11.8941.48218-4.42007.88441-9.08147.96436-14.14411v-.08045c3.85793-11.17108,9.08147-21.5382,15.59114-31.02189Z"></path>
  <path fill="#312e81" d="m307.35936,187.45242v.08045c-7.87577,9.56365-14.46589,20.09166-19.60948,31.34318-4.8218-10.93023-11.33148-21.29735-19.36814-31.02189l9.80449-21.05602c0-.08045.08045-.08045.08045-.1604,0,0,0-.08045.08045-.08045,2.81264-4.82229,5.94705-9.40276,9.4832-13.82331,8.278,10.60845,14.86812,22.26171,19.52903,34.71844Z"></path>
  <path fill="#168ccd" d="m287.83033,242.90559c3.05397,11.57281,4.58096,23.54736,4.42007,35.6828-1.92872,5.62576-3.45571,11.01019-4.66091,16.15377-1.12525-5.30447-2.57179-10.60845-4.34011-15.67159-.1604-12.37677,1.36659-24.51172,4.58096-36.16498Z"></path>
  <path fill="#0760ab" d="m280.51719,222.4122c1.12476,2.4109,2.08961,4.8218,2.97353,7.2327-3.69704,10.36761-6.18839,21.21691-7.39359,32.30754-4.6614-9.64409-10.36761-18.56467-17.11813-26.76222,0-3.05397.1604-6.10794.40174-9.32231.80347-9.96538,2.65224-19.77037,5.62576-29.33401,6.34879,8.19755,11.41192,16.7164,15.5107,25.87831Z"></path>
  <path fill="#168ccd" d="m260.58593,286.62505c3.21486,8.59929,6.99186,16.07332,10.60845,22.42211-11.97455-10.04583-26.1996-25.39564-36.16498-46.5321,9.40325,6.83097,17.92209,14.78718,25.47657,24.02954l.07995.08045Z"></path>
  <path fill="#0760ab" d="m267.73868,316.76254c-19.2877-6.83146-46.21081-20.89562-66.46336-49.02394-6.0275-8.35795-11.01019-17.43942-14.94807-27.16396,9.96538,2.2505,19.52903,5.54532,28.53005,9.88543,2.73268,1.3661,5.46536,2.73219,8.03666,4.25918,10.84979,29.33401,29.6553,49.50612,44.84471,62.04329Z"></path>
  <path fill="#168ccd" d="m275.21272,280.91885c.16089,4.74185.48218,9.24236.96436,13.50153-2.49135-3.85744-5.38443-7.87577-8.59929-11.8941l-.07995-.08045c-4.01833-10.8493-6.59012-21.85949-7.79582-32.95012,6.42923,9.56365,11.65326,19.93077,15.5107,31.0214v.40174Z"></path>
  <path fill="#312e81" d="m261.30945,322.87048c-20.1721-.32178-48.13953-5.06314-74.82131-23.22607-28.36965-19.36863-42.67466-45.166-49.34523-61.23933,13.18024-1.76832,26.76222-1.68788,39.86202.40174,4.33962,12.05499,10.36712,23.38647,17.76071,33.59319,20.09166,28.04787,46.45214,42.83555,66.5438,50.47048Z"></path>
  <path fill="#312e81" d="m259.05895,189.1403c-4.17873,11.73321-6.75052,23.86865-7.63444,36.08454,0,.40174-.08045.88392-.08045,1.28565-.24134-.32129-.48218-.56213-.80396-.88392-8.4384-8.67973-17.9216-16.23372-28.36916-22.34167.16089-13.42158,2.4109-26.84267,6.59012-40.02291,11.41192,7.15275,21.61864,15.83248,30.29788,25.87831Z"></path>
  <path fill="#0760ab" d="m254.88021,268.70296c-7.71537-7.55448-16.23422-13.98371-25.39613-19.36814-.88392-2.4109-1.60694-4.98269-2.33046-7.55448-2.73268-9.40276-4.33962-19.1273-4.8218-29.01223,8.19706,5.30398,15.6711,11.57281,22.50256,18.48423,2.08961,2.17006,4.17873,4.42007,6.10794,6.91141l.07995.08045c.08045,10.20672,1.44703,20.41295,3.85793,30.45877Z"></path>
  <path fill="#312e81" d="m218.3135,243.22688c-11.01068-5.38443-22.82434-9.24187-35.20062-11.49237-5.06314-14.86763-6.75101-28.36916-7.15275-38.33504,10.12627,2.08961,23.70825,6.34928,38.0937,14.46638.24134,12.21539,2.00917,24.18994,5.22403,35.8432-.32178-.1604-.64307-.32129-.96436-.48218Z"></path>
  <g>
    <path fill="#312e81" d="m115.3375,352.81361l2.37403,6.73384h-.63426c-6.1549-6.12971-13.40197-9.19431-21.7427-9.19431-8.65737,0-15.65301,2.57557-20.98791,7.72672-5.33491,5.15164-8.00236,11.38162-8.00236,18.69044,0,4.51837,1.18702,9.71249,3.56105,15.58286,2.37403,5.87087,6.1223,10.69846,11.24479,14.48229,5.122,3.78432,11.32334,5.67624,18.60449,5.67624,4.77622,0,9.46007-.76961,14.05007-2.30932,4.58999-1.53922,8.0073-3.60452,10.25191-6.19442l.56115.17289-4.44575,6.81979c-7.19471,1.55404-11.86374,2.4748-14.00758,2.76279-2.14384.28749-5.01432.43173-8.61143.43173-13.32393,0-22.85612-3.08634-28.59707-9.25902s-8.61192-13.56103-8.61192-22.16554c0-5.81258,1.47451-11.40237,4.42451-16.76988,2.94951-5.36701,7.20163-9.5969,12.75586-12.69065,5.55324-3.09326,11.89881-4.64038,19.03573-4.64038,3.56796,0,6.65431.32355,9.25902.97115,2.60422.6476,4.7698,1.31644,6.49673,2.00701l2.84874,1.07933c.08645.02914.14375.05779.17289.08645Z"></path>
    <path fill="#312e81" d="m162.69022,348.66967c8.92016,0,16.21515,2.7124,21.88497,8.13672,5.66883,5.42481,8.50325,12.19421,8.50325,20.30919,0,10.44604-3.28047,19.23777-9.84142,26.37419-6.56144,7.13741-15.26672,10.70538-26.11535,10.70538-8.80605,0-16.01459-2.87739-21.62612-8.63316-5.61153-5.75528-8.41729-12.66151-8.41729-20.71968,0-5.43864,1.3525-11.02152,4.05749-16.74814,2.70499-5.72613,6.77731-10.39566,12.21594-14.00709,5.43913-3.61143,11.88498-5.4174,19.33854-5.4174Zm-.25934,62.15856c4.37413,0,8.69046-1.1722,12.94999-3.51807,4.25854-2.34489,7.61113-5.57498,10.05728-9.69076,2.44566-4.11479,3.66923-8.34517,3.66923-12.69065,0-6.15786-1.64789-11.75507-4.94269-16.79161-3.29529-5.03556-7.56865-8.97845-12.82007-11.82719-5.25192-2.84874-10.10816-4.27336-14.56824-4.27336-6.3021,0-12.02181,2.37403-17.15864,7.1221-5.13633,4.74856-7.70499,10.64808-7.70499,17.69805,0,9.00759,3.13623,16.92103,9.41018,23.74132,6.27345,6.81979,13.30911,10.23017,21.10795,10.23017Z"></path>
    <path fill="#312e81" d="m199.38103,350.26669v-.6476h29.17995c7.42441,0,13.28787.58289,17.58987,1.74817,4.30201,1.16578,8.05077,3.00039,11.24479,5.50384,3.19452,2.50345,5.72613,5.70538,7.5973,9.60431,1.87018,3.89991,2.80576,8.25231,2.80576,13.05767,0,4.63346-.97115,9.1874-2.91394,13.6618-1.9423,4.47539-4.58258,8.33085-7.92085,11.56835-3.33827,3.2375-6.85634,5.45395-10.55373,6.64788-3.69837,1.19443-9.41759,1.79114-17.15864,1.79114h-29.87053v-.6476h.77702c1.55404,0,2.57508-.62488,3.06461-1.87611.48903-1.25074.73404-3.5156.73404-6.7941v-46.28475c0-3.45089-.2954-5.53546-.8852-6.25468-.5898-.71873-1.82029-1.07834-3.69047-1.07834Zm21.6691.69057h-9.75547v49.33849c0,3.10808.5246,5.4174,1.57577,6.92797,1.05019,1.51106,2.84133,2.60472,5.37393,3.28047,2.5321.67674,5.942,1.01462,10.23017,1.01462,11.91413,0,20.28054-3.0572,25.10122-9.17258,4.81969-6.11489,7.22978-12.78401,7.22978-20.00738,0-8.48892-3.30171-15.8417-9.90613-22.05786-6.60441-6.21566-16.55401-9.32373-29.84929-9.32373Z"></path>
    <path fill="#312e81" d="m274.1354,350.35313v-.73404h40.37091v8.76258h-.65402c-.87186-3.25133-1.6064-5.16498-2.20164-5.74095-.59573-.57498-2.05641-.86297-4.38154-.86297h-21.18797v28.53236h19.66209c1.94675,0,3.18267-.17931,3.70578-.53942.52312-.35961.79925-.8852.82839-1.57577h.65402v5.99979h-.65402c-.14572-.83432-.48706-1.39547-1.0245-1.68346-.53794-.287-1.53329-.43124-2.98656-.43124h-20.18521v19.64035c0,2.96433.27514,5.10076.82691,6.40979.55177,1.31002,1.42956,2.13001,2.63386,2.46048,1.2048.33146,3.02558.49644,5.46433.49644h11.31938c3.59909,0,5.89853-.12152,6.9003-.36406,1.00128-.24303,1.84993-.7291,2.54692-1.45821.69601-.7291,1.23345-2.32315,1.61084-4.78215h.65402v8.71961h-43.90232v-.6476c1.48192-.08645,2.60818-.36603,3.37877-.84074.76961-.47421,1.1554-1.70371,1.1554-3.688v-51.33216c0-2.32908-.20401-3.96808-.61055-4.917-.40753-.94892-1.71507-1.42363-3.92363-1.42363Z"></path>
    <path fill="#312e81" d="m383.2352,403.23093v9.97133h-60.90535l49.90112-61.16567h-33.41676c-2.76279,0-4.66063.3527-5.69304,1.0576-1.0324.70539-1.75212,2.43874-2.15915,5.20153h-.65402l.34874-8.67663h52.83976l-50.04635,61.20914h42.5923c2.46986,0,4.13356-.50336,4.9911-1.51106.85704-1.00672,1.37324-3.03546,1.54762-6.08624h.65402Z"></path>
    <path fill="#312e81" d="m391.10171,350.35313v-.73404h40.37091v8.76258h-.65402c-.87186-3.25133-1.6064-5.16498-2.20164-5.74095-.59573-.57498-2.05641-.86297-4.38154-.86297h-21.18797v28.53236h19.66209c1.94675,0,3.18267-.17931,3.70578-.53942.52312-.35961.79925-.8852.82839-1.57577h.65402v5.99979h-.65402c-.14572-.83432-.48706-1.39547-1.0245-1.68346-.53794-.287-1.53329-.43124-2.98656-.43124h-20.18521v19.64035c0,2.96433.27514,5.10076.82691,6.40979.55177,1.31002,1.42956,2.13001,2.63386,2.46048,1.2048.33146,3.02558.49644,5.46433.49644h11.31938c3.59909,0,5.89853-.12152,6.9003-.36406,1.00128-.24303,1.84993-.7291,2.54692-1.45821.69601-.7291,1.23345-2.32315,1.61084-4.78215h.65402v8.71961h-43.90232v-.6476c1.48192-.08645,2.60818-.36603,3.37877-.84074.76961-.47421,1.1554-1.70371,1.1554-3.688v-51.33216c0-2.32908-.20401-3.96808-.61055-4.917-.40753-.94892-1.71507-1.42363-3.92363-1.42363Z"></path>
    <path fill="#312e81" d="m494.28322,349.61909h12.3019v.6476c-1.87067.05779-3.16587.45347-3.8846,1.18702-.71972.73404-1.07933,2.28117-1.07933,4.64038v57.8852l-50.71963-54.00653v47.0178c0,1.49526.1146,2.60175.34529,3.32098.23019.71873.56115,1.20776.99289,1.4671.43173.25884,1.51057.51719,3.2375.77603v.6476h-12.21594v-.6476c2.18632,0,3.54623-.38777,4.07923-1.16479.53201-.77603.79826-2.6309.79826-5.56411v-43.00674c0-3.76654-.52509-6.8435-1.57528-9.23037-1.05117-2.38737-3.4751-3.49436-7.27375-3.32197v-.6476h11.9571l47.65503,50.74433v-44.87544c0-2.41602-.43173-3.89053-1.2952-4.42254-.86346-.5325-1.97145-.79875-3.32345-.79875v-.6476Z"></path>
  </g>
</svg>