<?xml version="1.0"?>
<svg id="Capa_1" data-name="Capa 1" xmlns="http://www.w3.org/2000/svg" viewBox="0 0 566.92913 566.92913">
  <defs>
    
  </defs>
  <rect fill="#312e81" x="-13.43676" y="-13.21013" width="593.3494" height="593.3494"></rect>
  <g>
    <path fill="#fff" d="m468.78699,284.75487c-8.13862,19.75077-25.70617,51.51108-60.94001,75.6289-34.04288,23.2243-69.57476,28.68357-95.18098,28.78291,25.60622-9.23084,59.55035-27.49261,85.45461-63.61997,9.03154-12.50567,16.27724-26.10295,21.63656-40.39506,16.07855-2.48126,32.85192-2.58061,49.02982-.39678Z"></path>
    <path fill="#fff" d="m374.69763,245.55077c14.4902-8.03927,30.4694-14.09341,46.64729-17.56755-.59548,16.67403-3.67222,32.85192-9.03154,48.33499-15.28437,2.77931-29.97387,7.64249-43.76924,14.29211-.1987.09935-.29804.1987-.49674.29804l6.65023-45.35759Z"></path>
    <path fill="#fff" d="m372.81184,299.54311c11.21536-5.35931,23.12495-9.52827,35.43253-12.20763-4.76444,11.41345-10.91793,22.33138-18.16303,32.45453-24.81265,34.53962-57.56522,51.90847-81.48495,60.34453,19.15529-15.68176,41.48667-40.19637,54.78652-75.6289,3.07674-1.68709,6.15349-3.37479,9.42893-4.96253Z"></path>
    <path fill="#fff" d="m336.38644,274.73047c8.53601-8.7341,17.86559-16.47533,28.08809-23.02621-.59548,12.20763-2.58061,24.31652-5.95479,36.02801-.89352,3.37479-1.98513,6.74897-3.07674,9.92506-11.21536,6.55027-21.63656,14.4908-31.16483,23.62169,3.07674-12.60502,4.66449-25.40813,4.86318-38.50928v-.09935c2.28257-2.67935,4.66509-5.25997,7.2451-7.93993Z"></path>
    <path fill="#fff" d="m364.67322,239.89341c-13.0018,7.54314-24.81265,16.97207-35.33319,27.88939l-.59548.59548c0-.39678-.09935-.69483-.09935-1.09161-1.09161-15.18563-4.2677-30.17196-9.42893-44.56342,10.71923-12.40632,23.2249-23.12556,37.31832-31.959,5.06188,15.97981,7.84058,32.45514,8.13862,49.12916Z"></path>
    <path fill="#fff" d="m348.69402,313.93457c-12.20823,25.60682-29.27904,44.16663-44.56402,56.96974,4.56575-7.84058,9.23023-16.97207,13.2005-27.6907v-.09935c9.32958-11.21536,19.85012-20.94173,31.36353-29.1797Z"></path>
    <path fill="#fff" d="m318.8195,267.9815c.29744,3.77157.39678,7.54314.39678,11.21536-8.23797,10.02441-15.38372,21.04108-21.14042,32.85192-1.4884-13.49793-4.56575-26.69843-9.03154-39.4028.99226-2.9774,2.18322-5.85545,3.57288-8.83284,5.16122-11.31471,11.5128-22.03395,19.25464-31.959,3.67222,11.81084,5.95479,23.91973,6.94766,36.12736Z"></path>
    <path fill="#fff" d="m318.42211,296.76381c-1.38905,13.99467-4.66449,27.6913-9.62702,41.08989v.09935c-4.16836,4.96253-7.74184,9.92506-10.81858,14.68889.59548-5.45866,1.09222-11.21536,1.19096-17.46759v-.09935c4.76444-13.79598,11.21536-26.59909,19.25464-38.31119Z"></path>
    <path fill="#fff" d="m307.90157,220.63877v.09935c-9.72636,11.81084-17.86498,24.81265-24.21717,38.70797-5.95479-13.49854-13.99407-26.30165-23.91913-38.31119l12.10828-26.00361c0-.09935.09935-.09935.09935-.19809,0,0,0-.09935.09935-.09935,3.47353-5.9554,7.34445-11.61215,11.7115-17.07142,10.2231,13.10115,18.36172,27.49261,24.11782,42.87633Z"></path>
    <path fill="#fff" d="m283.78375,289.12192c3.77157,14.29211,5.65736,29.08035,5.45866,44.06729-2.38192,6.94766-4.2677,13.59728-5.7561,19.94947-1.38965-6.55088-3.17609-13.10115-5.35992-19.35399-.19809-15.28498,1.6877-30.27131,5.65736-44.66276Z"></path>
    <path fill="#fff" d="m274.75221,263.81314c1.38905,2.9774,2.58061,5.95479,3.67222,8.93219-4.56575,12.80371-7.64249,26.2023-9.13088,39.89893-5.7567-11.91019-12.80371-22.92686-21.14042-33.05062,0-3.77157.19809-7.54314.49613-11.5128.99226-12.30698,3.27544-24.41586,6.94766-36.22671,7.84058,10.12375,14.09341,20.64429,19.15529,31.959Z"></path>
    <path fill="#fff" d="m250.13765,343.11427c3.97027,10.61989,8.63475,19.85012,13.10115,27.6907-14.78824-12.40632-32.35579-31.36292-44.66276-57.46587,11.61276,8.43606,22.13329,18.26177,31.46287,29.67583l.09874.09935Z"></path>
    <path fill="#fff" d="m258.9711,380.33324c-23.81978-8.43666-57.06909-25.80552-82.08043-60.54322-7.44379-10.32184-13.59728-21.53721-18.46046-33.54675,12.30698,2.77931,24.11782,6.84831,35.23384,12.20823,3.37479,1.68709,6.74957,3.37418,9.92506,5.25997,13.39919,36.22671,36.62349,61.1387,55.382,76.62177Z"></path>
    <path fill="#fff" d="m268.20133,336.06726c.1987,5.85605.59548,11.41406,1.19096,16.67403-3.07674-4.76383-6.64962-9.72636-10.61989-14.68889l-.09874-.09935c-4.96253-13.39859-8.13862-26.99587-9.62762-40.6925,7.93993,11.81084,14.39146,24.61395,19.15529,38.31058v.49613Z"></path>
    <path fill="#fff" d="m251.03117,387.87638c-24.91199-.39739-59.45101-6.25284-92.40227-28.68357-35.03575-23.91973-52.70204-55.77878-60.94001-75.6289,16.27724-2.18383,33.05062-2.08448,49.22851.49613,5.35931,14.88759,12.80311,28.88165,21.93399,41.48667,24.81265,34.63836,57.36713,52.90073,82.17978,62.32966Z"></path>
    <path fill="#fff" d="m248.25187,222.72326c-5.16062,14.4902-8.33671,29.47713-9.42832,44.56342,0,.49613-.09935,1.09161-.09935,1.58774-.29804-.39678-.59548-.69422-.99287-1.09161-10.42119-10.71923-22.13269-20.04821-35.03514-27.59135.1987-16.57528,2.9774-33.14996,8.13862-49.42721,14.09341,8.83345,26.69843,19.55268,37.41706,31.959Z"></path>
    <path fill="#fff" d="m243.09125,320.98097c-9.52827-9.32958-20.04881-17.26951-31.36353-23.91913-1.09161-2.9774-1.98453-6.15349-2.87805-9.32958-3.37479-11.61215-5.35931-23.62169-5.95479-35.82932,10.12315,6.55027,19.35338,14.29211,27.79004,22.82751,2.58061,2.67996,5.16062,5.45866,7.54314,8.53541l.09874.09935c.09935,12.60502,1.78704,25.20943,4.76444,37.61576Z"></path>
    <path fill="#fff" d="m197.93235,289.51871c-13.59789-6.64962-28.18743-11.41345-43.47181-14.19276-6.25284-18.36112-8.33732-35.03514-8.83345-47.34272,12.50567,2.58061,29.27904,7.84118,47.04468,17.86559.29804,15.08568,2.48126,29.87392,6.45153,44.26537-.39739-.19809-.79417-.39678-1.19096-.59548Z"></path>
  </g>
</svg>