<?xml version="1.0"?>
<svg id="Capa_1" data-name="Capa 1" xmlns="http://www.w3.org/2000/svg" viewBox="125 145 325 190">
  <defs>
    
  </defs>
  <path fill="#fff" d="m437.63384,239.36944c-6.59012,15.99288-20.81517,41.7103-49.34523,61.23933-27.56569,18.80552-56.33708,23.22607-77.07132,23.30652,20.73424-7.47453,48.21997-22.26171,69.19555-51.51528,7.31315-10.12627,13.18024-21.13646,17.51987-32.70928,13.01935-2.00917,26.60133-2.08961,39.70113-.32129Z"></path>
  <path fill="#fff" d="m361.44644,207.62452c11.73321-6.50968,24.67212-11.41192,37.77192-14.22505-.48218,13.50153-2.97353,26.60133-7.31315,39.13851-12.37628,2.2505-24.27088,6.18839-35.44147,11.57281-.16089.08045-.24134.16089-.40223.24134l5.38492-36.72761Z"></path>
  <path fill="#fff" d="m359.91945,251.34399c9.08147-4.33962,18.72507-7.71537,28.69094-9.88494-3.85793,9.24187-8.84062,18.08249-14.70723,26.27955-20.09166,27.96792-46.61254,42.03208-65.98118,48.86305,15.5107-12.69806,33.59319-32.54838,44.36253-61.23933,2.49135-1.3661,4.98269-2.73268,7.63493-4.01833Z"></path>
  <path fill="#fff" d="m330.42455,231.25233c6.9119-7.0723,14.46638-13.34064,22.74389-18.64512-.48218,9.88494-2.08961,19.68992-4.8218,29.17312-.72352,2.73268-1.60743,5.46487-2.49135,8.03666-9.08147,5.30398-17.51987,11.7337-25.23524,19.1273,2.49135-10.20672,3.777-20.57384,3.93789-31.18229v-.08045c1.84828-2.16957,3.77749-4.25918,5.86661-6.42923Z"></path>
  <path fill="#fff" d="m353.32933,203.04357c-10.52801,6.10794-20.09166,13.74287-28.6105,22.583l-.48218.48218c0-.32129-.08045-.56263-.08045-.88392-.88392-12.29633-3.45571-24.43128-7.63493-36.08454,8.67973-10.04583,18.80601-18.72556,30.21793-25.87831,4.09878,12.9394,6.34879,26.28004,6.59012,39.78158Z"></path>
  <path fill="#fff" d="m340.39042,262.99725c-9.88543,20.73473-23.70825,35.76325-36.08503,46.13036,3.69704-6.34879,7.47404-13.74287,10.6889-22.42211v-.08045c7.55448-9.08147,16.07332-16.95724,25.39613-23.62781Z"></path>
  <path fill="#fff" d="m316.19999,225.78746c.24084,3.05397.32129,6.10794.32129,9.08147-6.67057,8.11711-12.45673,17.03769-17.11813,26.60133-1.20521-10.92974-3.69704-21.61864-7.31315-31.9058.80347-2.4109,1.76783-4.74136,2.89308-7.15226,4.17922-9.16191,9.32231-17.84165,15.59114-25.87831,2.97353,9.56365,4.8218,19.36863,5.62576,29.25357Z"></path>
  <path fill="#fff" d="m315.87821,249.09349c-1.12476,11.33197-3.777,22.4226-7.79533,33.2719v.08045c-3.37526,4.01833-6.26883,8.03666-8.76018,11.8941.48218-4.42007.88441-9.08147.96436-14.14411v-.08045c3.85793-11.17108,9.08147-21.5382,15.59114-31.02189Z"></path>
  <path fill="#fff" d="m307.35936,187.45242v.08045c-7.87577,9.56365-14.46589,20.09166-19.60948,31.34318-4.8218-10.93023-11.33148-21.29735-19.36814-31.02189l9.80449-21.05602c0-.08045.08045-.08045.08045-.1604,0,0,0-.08045.08045-.08045,2.81264-4.82229,5.94705-9.40276,9.4832-13.82331,8.278,10.60845,14.86812,22.26171,19.52903,34.71844Z"></path>
  <path fill="#fff" d="m287.83033,242.90559c3.05397,11.57281,4.58096,23.54736,4.42007,35.6828-1.92872,5.62576-3.45571,11.01019-4.66091,16.15377-1.12525-5.30447-2.57179-10.60845-4.34011-15.67159-.1604-12.37677,1.36659-24.51172,4.58096-36.16498Z"></path>
  <path fill="#fff" d="m280.51719,222.4122c1.12476,2.4109,2.08961,4.8218,2.97353,7.2327-3.69704,10.36761-6.18839,21.21691-7.39359,32.30754-4.6614-9.64409-10.36761-18.56467-17.11813-26.76222,0-3.05397.1604-6.10794.40174-9.32231.80347-9.96538,2.65224-19.77037,5.62576-29.33401,6.34879,8.19755,11.41192,16.7164,15.5107,25.87831Z"></path>
  <path fill="#fff" d="m260.58593,286.62505c3.21486,8.59929,6.99186,16.07332,10.60845,22.42211-11.97455-10.04583-26.1996-25.39564-36.16498-46.5321,9.40325,6.83097,17.92209,14.78718,25.47657,24.02954l.07995.08045Z"></path>
  <path fill="#fff" d="m267.73868,316.76254c-19.2877-6.83146-46.21081-20.89562-66.46336-49.02394-6.0275-8.35795-11.01019-17.43942-14.94807-27.16396,9.96538,2.2505,19.52903,5.54532,28.53005,9.88543,2.73268,1.3661,5.46536,2.73219,8.03666,4.25918,10.84979,29.33401,29.6553,49.50612,44.84471,62.04329Z"></path>
  <path fill="#fff" d="m275.21272,280.91885c.16089,4.74185.48218,9.24236.96436,13.50153-2.49135-3.85744-5.38443-7.87577-8.59929-11.8941l-.07995-.08045c-4.01833-10.8493-6.59012-21.85949-7.79582-32.95012,6.42923,9.56365,11.65326,19.93077,15.5107,31.0214v.40174Z"></path>
  <path fill="#fff" d="m261.30945,322.87048c-20.1721-.32178-48.13953-5.06314-74.82131-23.22607-28.36965-19.36863-42.67466-45.166-49.34523-61.23933,13.18024-1.76832,26.76222-1.68788,39.86202.40174,4.33962,12.05499,10.36712,23.38647,17.76071,33.59319,20.09166,28.04787,46.45214,42.83555,66.5438,50.47048Z"></path>
  <path fill="#fff" d="m259.05895,189.1403c-4.17873,11.73321-6.75052,23.86865-7.63444,36.08454,0,.40174-.08045.88392-.08045,1.28565-.24134-.32129-.48218-.56213-.80396-.88392-8.4384-8.67973-17.9216-16.23372-28.36916-22.34167.16089-13.42158,2.4109-26.84267,6.59012-40.02291,11.41192,7.15275,21.61864,15.83248,30.29788,25.87831Z"></path>
  <path fill="#fff" d="m254.88021,268.70296c-7.71537-7.55448-16.23422-13.98371-25.39613-19.36814-.88392-2.4109-1.60694-4.98269-2.33046-7.55448-2.73268-9.40276-4.33962-19.1273-4.8218-29.01223,8.19706,5.30398,15.6711,11.57281,22.50256,18.48423,2.08961,2.17006,4.17873,4.42007,6.10794,6.91141l.07995.08045c.08045,10.20672,1.44703,20.41295,3.85793,30.45877Z"></path>
  <path fill="#fff" d="m218.3135,243.22688c-11.01068-5.38443-22.82434-9.24187-35.20062-11.49237-5.06314-14.86763-6.75101-28.36916-7.15275-38.33504,10.12627,2.08961,23.70825,6.34928,38.0937,14.46638.24134,12.21539,2.00917,24.18994,5.22403,35.8432-.32178-.1604-.64307-.32129-.96436-.48218Z"></path>
</svg>