<?xml version="1.0"?>
<svg xmlns="http://www.w3.org/2000/svg" viewBox="60 340 480 85">
  <path fill="#fff" d="m115.3375,352.81361l2.37403,6.73384h-.63426c-6.1549-6.12971-13.40197-9.19431-21.7427-9.19431-8.65737,0-15.65301,2.57557-20.98791,7.72672-5.33491,5.15164-8.00236,11.38162-8.00236,18.69044,0,4.51837,1.18702,9.71249,3.56105,15.58286,2.37403,5.87087,6.1223,10.69846,11.24479,14.48229,5.122,3.78432,11.32334,5.67624,18.60449,5.67624,4.77622,0,9.46007-.76961,14.05007-2.30932,4.58999-1.53922,8.0073-3.60452,10.25191-6.19442l.56115.17289-4.44575,6.81979c-7.19471,1.55404-11.86374,2.4748-14.00758,2.76279-2.14384.28749-5.01432.43173-8.61143.43173-13.32393,0-22.85612-3.08634-28.59707-9.25902s-8.61192-13.56103-8.61192-22.16554c0-5.81258,1.47451-11.40237,4.42451-16.76988,2.94951-5.36701,7.20163-9.5969,12.75586-12.69065,5.55324-3.09326,11.89881-4.64038,19.03573-4.64038,3.56796,0,6.65431.32355,9.25902.97115,2.60422.6476,4.7698,1.31644,6.49673,2.00701l2.84874,1.07933c.08645.02914.14375.05779.17289.08645Z"></path>
  <path fill="#fff" d="m162.69022,348.66967c8.92016,0,16.21515,2.7124,21.88497,8.13672,5.66883,5.42481,8.50325,12.19421,8.50325,20.30919,0,10.44604-3.28047,19.23777-9.84142,26.37419-6.56144,7.13741-15.26672,10.70538-26.11535,10.70538-8.80605,0-16.01459-2.87739-21.62612-8.63316-5.61153-5.75528-8.41729-12.66151-8.41729-20.71968,0-5.43864,1.3525-11.02152,4.05749-16.74814,2.70499-5.72613,6.77731-10.39566,12.21594-14.00709,5.43913-3.61143,11.88498-5.4174,19.33854-5.4174Zm-.25934,62.15856c4.37413,0,8.69046-1.1722,12.94999-3.51807,4.25854-2.34489,7.61113-5.57498,10.05728-9.69076,2.44566-4.11479,3.66923-8.34517,3.66923-12.69065,0-6.15786-1.64789-11.75507-4.94269-16.79161-3.29529-5.03556-7.56865-8.97845-12.82007-11.82719-5.25192-2.84874-10.10816-4.27336-14.56824-4.27336-6.3021,0-12.02181,2.37403-17.15864,7.1221-5.13633,4.74856-7.70499,10.64808-7.70499,17.69805,0,9.00759,3.13623,16.92103,9.41018,23.74132,6.27345,6.81979,13.30911,10.23017,21.10795,10.23017Z"></path>
  <path fill="#fff" d="m199.38103,350.26669v-.6476h29.17995c7.42441,0,13.28787.58289,17.58987,1.74817,4.30201,1.16578,8.05077,3.00039,11.24479,5.50384,3.19452,2.50345,5.72613,5.70538,7.5973,9.60431,1.87018,3.89991,2.80576,8.25231,2.80576,13.05767,0,4.63346-.97115,9.1874-2.91394,13.6618-1.9423,4.47539-4.58258,8.33085-7.92085,11.56835-3.33827,3.2375-6.85634,5.45395-10.55373,6.64788-3.69837,1.19443-9.41759,1.79114-17.15864,1.79114h-29.87053v-.6476h.77702c1.55404,0,2.57508-.62488,3.06461-1.87611.48903-1.25074.73404-3.5156.73404-6.7941v-46.28475c0-3.45089-.2954-5.53546-.8852-6.25468-.5898-.71873-1.82029-1.07834-3.69047-1.07834Zm21.6691.69057h-9.75547v49.33849c0,3.10808.5246,5.4174,1.57577,6.92797,1.05019,1.51106,2.84133,2.60472,5.37393,3.28047,2.5321.67674,5.942,1.01462,10.23017,1.01462,11.91413,0,20.28054-3.0572,25.10122-9.17258,4.81969-6.11489,7.22978-12.78401,7.22978-20.00738,0-8.48892-3.30171-15.8417-9.90613-22.05786-6.60441-6.21566-16.55401-9.32373-29.84929-9.32373Z"></path>
  <path fill="#fff" d="m274.1354,350.35313v-.73404h40.37091v8.76258h-.65402c-.87186-3.25133-1.6064-5.16498-2.20164-5.74095-.59573-.57498-2.05641-.86297-4.38154-.86297h-21.18797v28.53236h19.66209c1.94675,0,3.18267-.17931,3.70578-.53942.52312-.35961.79925-.8852.82839-1.57577h.65402v5.99979h-.65402c-.14572-.83432-.48706-1.39547-1.0245-1.68346-.53794-.287-1.53329-.43124-2.98656-.43124h-20.18521v19.64035c0,2.96433.27514,5.10076.82691,6.40979.55177,1.31002,1.42956,2.13001,2.63386,2.46048,1.2048.33146,3.02558.49644,5.46433.49644h11.31938c3.59909,0,5.89853-.12152,6.9003-.36406,1.00128-.24303,1.84993-.7291,2.54692-1.45821.69601-.7291,1.23345-2.32315,1.61084-4.78215h.65402v8.71961h-43.90232v-.6476c1.48192-.08645,2.60818-.36603,3.37877-.84074.76961-.47421,1.1554-1.70371,1.1554-3.688v-51.33216c0-2.32908-.20401-3.96808-.61055-4.917-.40753-.94892-1.71507-1.42363-3.92363-1.42363Z"></path>
  <path fill="#fff" d="m383.2352,403.23093v9.97133h-60.90535l49.90112-61.16567h-33.41676c-2.76279,0-4.66063.3527-5.69304,1.0576-1.0324.70539-1.75212,2.43874-2.15915,5.20153h-.65402l.34874-8.67663h52.83976l-50.04635,61.20914h42.5923c2.46986,0,4.13356-.50336,4.9911-1.51106.85704-1.00672,1.37324-3.03546,1.54762-6.08624h.65402Z"></path>
  <path fill="#fff" d="m391.10171,350.35313v-.73404h40.37091v8.76258h-.65402c-.87186-3.25133-1.6064-5.16498-2.20164-5.74095-.59573-.57498-2.05641-.86297-4.38154-.86297h-21.18797v28.53236h19.66209c1.94675,0,3.18267-.17931,3.70578-.53942.52312-.35961.79925-.8852.82839-1.57577h.65402v5.99979h-.65402c-.14572-.83432-.48706-1.39547-1.0245-1.68346-.53794-.287-1.53329-.43124-2.98656-.43124h-20.18521v19.64035c0,2.96433.27514,5.10076.82691,6.40979.55177,1.31002,1.42956,2.13001,2.63386,2.46048,1.2048.33146,3.02558.49644,5.46433.49644h11.31938c3.59909,0,5.89853-.12152,6.9003-.36406,1.00128-.24303,1.84993-.7291,2.54692-1.45821.69601-.7291,1.23345-2.32315,1.61084-4.78215h.65402v8.71961h-43.90232v-.6476c1.48192-.08645,2.60818-.36603,3.37877-.84074.76961-.47421,1.1554-1.70371,1.1554-3.688v-51.33216c0-2.32908-.20401-3.96808-.61055-4.917-.40753-.94892-1.71507-1.42363-3.92363-1.42363Z"></path>
  <path fill="#fff" d="m494.28322,349.61909h12.3019v.6476c-1.87067.05779-3.16587.45347-3.8846,1.18702-.71972.73404-1.07933,2.28117-1.07933,4.64038v57.8852l-50.71963-54.00653v47.0178c0,1.49526.1146,2.60175.34529,3.32098.23019.71873.56115,1.20776.99289,1.4671.43173.25884,1.51057.51719,3.2375.77603v.6476h-12.21594v-.6476c2.18632,0,3.54623-.38777,4.07923-1.16479.53201-.77603.79826-2.6309.79826-5.56411v-43.00674c0-3.76654-.52509-6.8435-1.57528-9.23037-1.05117-2.38737-3.4751-3.49436-7.27375-3.32197v-.6476h11.9571l47.65503,50.74433v-44.87544c0-2.41602-.43173-3.89053-1.2952-4.42254-.86346-.5325-1.97145-.79875-3.32345-.79875v-.6476Z"></path>
</svg>
