<svg width="159" height="42" viewBox="0 0 159 42" fill="none" xmlns="http://www.w3.org/2000/svg">
<path fill-rule="evenodd" clip-rule="evenodd" d="M27.517 1.86151C32.3051 3.43551 36.3321 6.65504 38.8612 10.9001C40.7027 13.9527 41.6603 17.4584 41.6357 20.988C41.6357 25.9008 39.8188 30.6227 36.4794 34.3193C33.1399 38.0157 28.5483 40.4005 23.5392 41.0445C18.5301 41.6645 13.4474 40.5198 9.24854 37.8011C5.04975 35.0824 2.00501 30.9805 0.703631 26.2347C-0.597751 21.5127 -0.0821104 16.4568 2.15234 12.0686C4.38679 7.68051 8.19271 4.22251 12.8581 2.33847C17.5234 0.454448 22.7289 0.287508 27.517 1.86151ZM27.1978 39.1844C31.7403 37.6818 35.5464 34.6293 37.9526 30.5989C39.6714 27.6894 40.6045 24.3745 40.6045 21.0118C40.6045 16.3614 38.8612 11.8779 35.6936 8.37213C32.5261 4.86641 28.1555 2.6008 23.4164 2.0046C18.6529 1.40839 13.8402 2.50542 9.86242 5.08105C5.8846 7.68051 2.98718 11.5678 1.75947 16.0752C0.53175 20.5825 0.998281 25.3523 3.13451 29.5256C5.27075 33.6992 8.88024 36.9663 13.3 38.7551C17.7198 40.5198 22.6551 40.6867 27.1978 39.1844ZM24.7425 8.82524C26.1911 9.99381 27.9836 12.9272 29.7516 15.9082C31.544 18.9131 33.2627 21.918 33.5574 23.7544C33.7539 25.0898 33.4837 26.4493 32.7963 27.6178C32.1088 28.8341 31.2002 29.5733 29.6288 30.2174C28.0573 30.8612 24.2512 30.9328 20.8383 30.9328C17.4252 30.9328 13.6193 30.8373 12.0478 30.2174C10.4763 29.5733 9.59237 28.8102 8.88028 27.6178C8.19276 26.4493 7.92266 25.0898 8.11911 23.7544C8.41375 21.9419 10.1326 18.9131 11.925 15.9082C13.693 12.9272 15.4609 9.99381 16.9341 8.82524C18.0391 7.94285 19.4141 7.46587 20.8383 7.46587C22.2625 7.46587 23.6374 7.94285 24.7425 8.82524ZM29.2112 29.311C30.1935 28.9771 31.323 28.1426 31.9122 27.1409C32.5261 26.0676 32.7226 24.7798 32.477 23.8497C32.2806 22.872 31.4703 20.9164 28.7939 16.4329C26.093 11.8778 24.9879 10.3754 24.104 9.68379C23.0482 8.84908 22.0169 8.5152 20.8137 8.5152C19.6351 8.5152 18.5793 8.84908 17.5234 9.68379C16.664 10.3754 15.5345 11.9017 12.8335 16.4329C10.1571 20.9164 9.34683 22.872 9.15038 23.8497C8.95395 24.8038 9.15038 26.0915 9.76424 27.1409C10.3536 28.1426 11.483 28.9771 12.4652 29.311C13.693 29.7165 15.731 29.8835 20.8383 29.8835C25.9455 29.8835 27.9836 29.7165 29.2112 29.311ZM22.6551 10.7331C22.4588 10.4231 22.2132 10.1607 21.8941 9.99379C21.5748 9.803 21.2065 9.73146 20.8382 9.73146C20.4699 9.73146 20.1016 9.82684 19.7823 9.99379C19.4631 10.1846 19.193 10.4231 19.0212 10.7331L10.8937 24.422C10.7218 24.7322 10.6236 25.0898 10.6236 25.4476C10.6236 25.8053 10.7218 26.1631 10.8937 26.4731C11.0901 26.783 11.3356 27.0455 11.6549 27.2123C11.9741 27.4032 12.3424 27.4748 12.7107 27.4748H28.9903C29.3585 27.4748 29.7269 27.3792 30.0461 27.2123C30.3652 27.0216 30.6355 26.783 30.8074 26.4731C31.0037 26.1631 31.0774 25.8053 31.0774 25.4476C31.0774 25.0898 30.9792 24.7322 30.8074 24.422L22.6551 10.7331ZM29.8742 25.9485C29.776 26.0915 29.6532 26.2345 29.5059 26.3061C29.3585 26.4015 29.1622 26.4491 28.9903 26.4491H12.7107C12.5388 26.4491 12.3424 26.4015 12.195 26.3061C12.0477 26.2108 11.9004 26.0915 11.8267 25.9485C11.7285 25.8053 11.6794 25.6146 11.6794 25.4476C11.6794 25.2807 11.7285 25.0898 11.8267 24.9468L19.9542 11.2578C20.0524 11.1147 20.1752 10.9716 20.3226 10.9C20.4699 10.8047 20.6663 10.7569 20.8382 10.7569C21.0101 10.7569 21.2065 10.8047 21.3538 10.9C21.5011 10.9954 21.6484 11.1147 21.7222 11.2578L29.8497 24.9468C29.9479 25.0898 29.997 25.2807 29.997 25.4476C29.997 25.6146 29.9723 25.7815 29.8742 25.9485ZM26.8785 7.03661C28.7446 8.20518 30.5617 10.4708 32.7961 14.2388C35.0551 18.0308 36.1356 20.7256 36.2093 22.848C36.3319 24.9945 35.8655 26.9739 34.7851 28.7864C33.7293 30.5989 32.1332 32.0775 30.1933 32.9837C28.5974 33.8661 25.2579 34.367 20.8136 34.367C16.3693 34.367 13.0299 33.8661 11.4338 32.9837C9.51859 32.0536 7.92257 30.5989 6.84216 28.7864C5.76177 26.9739 5.29524 24.9945 5.41801 22.848C5.54078 20.7256 6.62119 18.0308 8.88017 14.2388C11.1146 10.4708 12.9317 8.20518 14.7978 7.03661C16.7867 5.7965 18.7019 5.29567 20.8382 5.29567C22.9498 5.29567 24.8897 5.77264 26.8785 7.03661ZM29.7269 32.0536C31.4703 31.2189 32.9436 29.9072 33.9012 28.2616C34.8832 26.6163 35.2517 24.8991 35.1289 22.872C35.0061 20.8449 33.9503 18.3169 31.8141 14.7397C29.7023 11.1862 27.9098 8.96834 26.2646 7.89515C24.6441 6.84583 22.7533 6.27345 20.7891 6.27345C18.8493 6.27345 16.934 6.82197 15.3134 7.89515C13.6683 8.99217 11.8758 11.1862 9.76413 14.7397C7.65245 18.3169 6.59663 20.8449 6.4493 22.872C6.30197 24.8991 6.74396 26.6163 7.72612 28.2616C8.7083 29.9072 10.157 31.2189 11.9004 32.0536C13.3245 32.8407 16.5902 33.3176 20.8136 33.3176C25.037 33.3176 28.3027 32.8407 29.7269 32.0536ZM38.9594 21.918C38.9594 19.2708 37.8545 15.9559 35.8411 12.5694C33.8275 9.18292 31.4212 6.58343 29.064 5.27177C26.584 3.84087 23.7358 3.07771 20.8383 3.07771C17.9409 3.07771 15.0926 3.84087 12.6126 5.27177C10.2799 6.58343 7.84904 9.18292 5.83557 12.5694C3.82212 15.9559 2.71717 19.2708 2.71717 21.918C2.6435 24.7322 3.38013 27.4985 4.82884 29.9549C6.27756 32.3875 8.38923 34.3907 10.9429 35.75C13.3001 37.0617 16.8114 37.8011 20.8383 37.8011C24.8653 37.8011 28.3764 37.0856 30.7336 35.75C33.2873 34.3907 35.3991 32.3875 36.8478 29.9549C38.2964 27.5224 39.0331 24.7322 38.9594 21.918ZM35.9392 29.4303C34.5888 31.7197 32.5998 33.5799 30.2182 34.8439C28.0082 36.0839 24.6934 36.7517 20.8383 36.7517C16.9833 36.7517 13.6684 36.0839 11.4585 34.8439C9.07676 33.5799 7.11239 31.7197 5.7619 29.454C4.41142 27.1885 3.72389 24.5889 3.79756 21.9656C3.79756 19.4854 4.85341 16.3375 6.79319 13.1179C8.733 9.89836 10.992 7.41814 13.1773 6.17801C15.4854 4.7948 18.1373 4.07935 20.8629 4.07935C23.5639 4.07935 26.2402 4.7948 28.5483 6.17801C30.7336 7.41814 33.0173 9.87453 34.9325 13.1179C36.8478 16.3613 37.9282 19.4854 37.9282 21.9656C37.9526 24.5652 37.2897 27.1646 35.9392 29.4303ZM101.303 14.0242C101.303 11.4963 103.414 9.51688 106.091 9.51688C108.767 9.51688 110.879 11.4963 110.879 14.0242C110.879 16.5522 108.767 18.5316 106.091 18.5316C103.414 18.5316 101.303 16.5522 101.303 14.0242ZM104.372 16.5283C104.888 16.8622 105.477 17.0292 106.091 17.0292C106.901 17.0292 107.662 16.6953 108.227 16.0991C108.816 15.5505 109.136 14.7874 109.136 14.0004C109.136 13.4042 108.964 12.8318 108.62 12.331C108.276 11.854 107.785 11.4486 107.221 11.234C106.656 10.9955 106.017 10.9478 105.428 11.067C104.839 11.1863 104.299 11.4725 103.856 11.9017C103.439 12.331 103.144 12.8795 103.022 13.4519C102.923 14.0481 102.973 14.6443 103.218 15.1928C103.464 15.7413 103.856 16.1944 104.372 16.5283ZM119.62 9.70766C121.609 9.70766 122.837 10.9716 122.837 12.6649C122.837 13.9288 121.929 14.9305 120.75 15.2882L122.984 18.3885H120.897L119.031 15.6459H116.33V18.3885H114.685V9.70766H119.62ZM116.33 11.2101V14.1196H119.498C120.676 14.1196 121.192 13.4519 121.192 12.6649C121.192 11.8779 120.652 11.2101 119.498 11.2101H116.33ZM62.1142 18.3885L57.4733 9.70766V9.73152H56.6385L51.9485 18.4123H53.7165L57.0558 12.1164L58.75 15.3359H55.9509L56.7122 16.7668H59.4867L60.3462 18.3885H62.1142ZM135.605 18.3885L130.965 9.70766V9.73152H130.105L125.415 18.4123H127.183L130.523 12.1164L132.217 15.3359H129.418L130.179 16.7668H132.978L133.837 18.3885H135.605ZM153.186 13.1657L153.997 14.692H157.508V13.1657H153.186ZM152.499 11.2101H158.392V9.68383H150.829V18.3647H158.392V16.8383H152.499V11.2101ZM91.0638 9.70766H89.4186V18.3885H91.0638V9.70766ZM97.4969 9.70766H95.8519V13.1657H91.7758L92.5862 14.692H95.8519V18.3885H97.4969V9.70766ZM137.668 14.0481C137.668 16.576 139.779 18.5554 142.456 18.5554C145.918 18.5554 147.539 15.6698 147.219 13.1896H142.038L142.358 13.7381L142.849 14.7158H145.476C145.255 16.0275 144.052 17.1007 142.456 17.1007C140.835 17.1007 139.362 15.7652 139.362 14.0719C139.362 12.4026 140.86 11.0909 142.456 11.0909C143.094 11.0909 143.757 11.2817 144.199 11.6633L145.476 10.5662C144.617 9.89845 143.561 9.54074 142.456 9.54074C139.779 9.54074 137.668 11.4963 137.668 14.0481ZM84.213 18.1023C84.8515 17.8162 85.4406 17.363 85.8828 16.8145L84.7042 15.8129C84.4095 16.2183 84.0166 16.5283 83.5747 16.743C83.1325 16.9576 82.6415 17.0768 82.1505 17.0768C81.3401 17.053 80.579 16.7191 79.9896 16.1706C79.4004 15.6221 79.0811 14.8589 79.0811 14.0719C79.0811 12.3787 80.4809 11.067 82.0768 11.067C83.0835 11.067 83.771 11.4725 84.4586 12.3072L85.7109 11.234C84.7286 10.0892 83.4519 9.54074 82.0768 9.54074C79.4004 9.54074 77.3377 11.4963 77.3377 14.0481C77.3377 16.576 79.4495 18.5554 82.1258 18.5554C82.8381 18.5554 83.5501 18.4124 84.213 18.1023ZM67.0004 12.6887L72.5252 18.3647H73.4582V9.68383H71.813V15.3359L66.3129 9.68383H65.3552V18.3647H67.0004V12.6887ZM89.0502 25.1614H92.0949V32.3159H93.7401V25.1614H96.6376V23.6351H89.0502V25.1614ZM112.77 23.6351H111.125V32.3159H117.656V30.7896H112.77V23.6351ZM97.7178 32.3159L102.408 23.6351V23.6114H103.267L107.908 32.2922H106.14L105.281 30.6705H102.482L101.72 29.2396H104.52L102.825 26.0201L99.4858 32.3159H97.7178ZM74.9805 27.0932H80.1615C80.4809 29.5972 78.8848 32.4828 75.3981 32.4828C72.7215 32.4828 70.6099 30.5273 70.6099 27.9756C70.6099 25.4476 72.7215 23.4682 75.3981 23.4682C76.4785 23.4921 77.5587 23.8497 78.4182 24.4936L77.1414 25.5669C76.6995 25.1853 76.0363 24.9945 75.3981 24.9945C73.7775 24.9945 72.3042 26.2824 72.3042 27.9756C72.3042 29.6688 73.8019 31.0042 75.3981 31.0042C76.9939 31.0042 78.1972 29.9074 78.4182 28.6195H75.7909L75.2999 27.6417L74.9805 27.0932ZM85.4406 32.2922H83.7957V23.6114H85.4406V32.2922ZM66.7304 32.2922H65.0852V23.6114H66.7304V32.2922ZM56.4912 23.6351H53.2746V32.3159H56.4912C59.4376 32.3159 61.2793 30.265 61.2793 27.9756C61.2793 25.6862 59.5113 23.6351 56.4912 23.6351ZM56.4666 30.7896H54.9196V25.1614H56.4666C58.3818 25.1614 59.6095 26.4493 59.6095 27.9756C59.6095 29.5019 58.3818 30.7896 56.4666 30.7896Z" fill="#FFFEF1"/>
</svg>
