<svg width="143" height="48" viewBox="0 0 143 48" fill="none" xmlns="http://www.w3.org/2000/svg">
<path d="M28.8611 15.993C23.6663 15.993 19.6073 19.537 19.6073 24.2813C19.6073 29.0257 23.5638 32.5393 28.8611 32.5393C34.1585 32.5393 38.1839 28.965 38.1839 24.251C38.1839 19.5673 34.2274 15.993 28.8611 15.993ZM28.8961 29.1201C25.938 29.1201 23.7701 27.0555 23.7701 24.2824C23.7701 21.4781 25.9028 19.4145 28.8611 19.4145C31.8545 19.4145 34.021 21.5096 34.021 24.2824C34.021 27.0555 31.8545 29.1201 28.8961 29.1201ZM39.3184 19.5988H41.899V32.2325H46.0269V16.301H39.3184V19.5988ZM9.21886 19.4133C11.3866 19.4133 13.1066 20.6149 13.7595 22.4021H18.1288C17.3369 18.5816 13.8283 15.993 9.2539 15.993C4.05904 15.993 0 19.537 0 24.2824C0 29.0281 3.9565 32.5406 9.2539 32.5406C13.7257 32.5406 17.3032 29.9519 18.095 26.1001H13.7595C13.1403 27.8872 11.4204 29.1201 9.25261 29.1201C6.25926 29.1201 4.16159 27.0555 4.16159 24.2824C4.16288 21.4781 6.22681 19.4133 9.21886 19.4133ZM117.75 22.7416L114.723 22.3415C113.278 22.1571 112.246 21.7254 112.246 20.7082C112.246 19.5988 113.588 19.0447 115.411 19.0447C117.406 19.0447 118.679 19.8146 118.955 21.078H122.945C122.497 17.8735 119.745 15.9942 115.515 15.9942C111.146 15.9942 108.256 17.9971 108.256 20.8319C108.256 23.543 110.148 25.1154 113.966 25.6076L116.993 26.0078C118.473 26.1921 119.299 26.7171 119.299 27.7028C119.299 28.9661 117.854 29.49 115.859 29.49C113.416 29.49 112.04 28.5965 111.833 27.2409H107.774C108.154 30.3533 110.87 32.5406 115.824 32.5406C120.331 32.5406 123.323 30.6915 123.323 27.5174C123.323 24.6825 121.156 23.2035 117.75 22.7416ZM43.9628 9.73795C42.4492 9.73795 41.3136 10.7237 41.3136 12.0792C41.3136 13.4348 42.4479 14.4205 43.9628 14.4205C45.4764 14.4205 46.6123 13.4348 46.6123 12.0792C46.6123 10.7237 45.4764 9.73795 43.9628 9.73795ZM104.541 21.7558C104.541 18.3051 102.202 15.9942 97.2484 15.9942C92.5703 15.9942 89.9558 18.1208 89.4392 21.3871H93.5334C93.7398 20.1237 94.8405 19.0762 97.1797 19.0762C99.2785 19.0762 100.311 19.9079 100.311 20.9252C100.311 22.2505 98.4179 22.5887 96.0788 22.8044C92.9141 23.1125 88.9926 24.0983 88.9926 27.7962C88.9926 30.6623 91.3669 32.5103 95.1507 32.5103C98.109 32.5103 99.9665 31.4008 100.896 29.644C101.033 31.2153 102.341 32.2325 104.165 32.2325H106.572V28.9358H104.542L104.541 21.7558ZM100.482 25.7617C100.482 27.8883 98.4179 29.4596 95.9061 29.4596C94.3576 29.4596 93.0505 28.874 93.0505 27.6422C93.0505 26.0708 95.1493 25.6393 97.0757 25.4549C98.9333 25.3009 99.9654 24.9311 100.482 24.2217V25.7617ZM78.5693 15.993C76.2639 15.993 74.3376 16.8563 72.9617 18.3039V9.58398H68.8338V32.2325H72.8928V30.1373C74.2687 31.6469 76.2302 32.5406 78.5693 32.5406C83.5228 32.5406 87.2727 29.0281 87.2727 24.2824C87.2727 19.537 83.4539 15.993 78.5693 15.993ZM77.9502 29.1201C74.9918 29.1201 72.824 27.0555 72.824 24.2824C72.824 21.5096 75.0255 19.4145 77.9838 19.4145C80.9772 19.4145 83.0749 21.4793 83.0749 24.2824C83.0749 27.0555 80.9083 29.1201 77.9502 29.1201ZM58.9607 15.993C56.2775 15.993 54.5226 16.9787 53.4906 18.3658V16.301H49.3966V32.2314H53.5245V23.5733C53.5245 21.1387 55.2444 19.4133 57.7898 19.4133C60.1641 19.4133 61.6425 20.9228 61.6425 23.1112V32.2325H65.7703V22.8348C65.7716 18.8277 63.4676 15.993 58.9607 15.993ZM143 23.7588C143 19.1987 139.285 15.9942 134.296 15.9942C128.999 15.9942 125.111 19.5685 125.111 24.2824C125.111 29.2439 129.274 32.5406 134.365 32.5406C138.666 32.5406 142.037 30.2599 142.896 27.0252H138.596C137.977 28.4425 136.463 29.2439 134.433 29.2439C131.784 29.2439 129.788 27.7646 129.342 25.1761H142.999L143 23.7588ZM129.583 22.5256C130.237 20.3069 132.095 19.229 134.228 19.229C136.567 19.229 138.356 20.4306 138.768 22.5256H129.583Z" fill="#FFFEF1"/>
</svg>
